# xmcd CD database file
#
# Track frame offsets:
#	150
#	3663
#	22442
#	40553
#	46241
#	63457
#	82650
#	99497
#	104348
#	120012
#	137369
#	159688
#	179323
#	200159
#	226044
#	243567
#	257344
#
# Disc length: 3642 seconds
#
# Revision: 5
# Processed by: cddbd v1.5PL3 Copyright (c) Steve Scherf et al.
# Submitted via: CDex 1.51
#
DISCID=d00e3811
DTITLE=Usher - Confessions
DYEAR=2004
DGENRE=R&B
TTITLE0=Intro
TTITLE1=Yeah! ft. Lil' Jon and Ludacris
TTITLE2=Throwback
TTITLE3=Confession (Interlude)
TTITLE4=Confession Part II
TTITLE5=Burn
TTITLE6=Caught Up
TTITLE7=Superstar (Interlude)
TTITLE8=Superstar
TTITLE9=Truth Hurts
TTITLE10=Simple Things
TTITLE11=Bad Girl
TTITLE12=Thats What Its Made For
TTITLE13=Can U Handle It
TTITLE14=Do It To Me
TTITLE15=Take Your Hand
TTITLE16=Follow Me
EXTD=YEAR: 2004
EXTT0=
EXTT1=
EXTT2=
EXTT3=
EXTT4=
EXTT5=
EXTT6=
EXTT7=
EXTT8=
EXTT9=
EXTT10=
EXTT11=
EXTT12=
EXTT13=
EXTT14=
EXTT15=
EXTT16=
PLAYORDER=
